<?xml version="1.0" encoding="UTF-8"?>
<svg id="Layer_2" xmlns="http://www.w3.org/2000/svg" viewBox="0 0 171 171">
    <defs>
        <style>.cls-1{fill:#fff;}.cls-2{fill:url(#radial-gradient);}</style>
        <radialGradient id="radial-gradient" cx="85.5" cy="85.5" fx="85.5" fy="140.34" r="82"
                        gradientTransform="translate(-1.84 1.88) rotate(-1.25)" gradientUnits="userSpaceOnUse">
            <stop offset=".13" stop-color="#fff"/>
            <stop offset=".25" stop-color="#cacaca"/>
            <stop offset=".4" stop-color="#8d8d8d"/>
            <stop offset=".55" stop-color="#5b5b5b"/>
            <stop offset=".69" stop-color="#333"/>
            <stop offset=".81" stop-color="#171717"/>
            <stop offset=".92" stop-color="#060606"/>
            <stop offset="1" stop-color="#000"/>
        </radialGradient>
    </defs>
    <g id="Layer_1-2">
        <g>
            <path class="cls-2"
                  d="M85.47,167.5c-21.53,0-41.87-8.29-57.28-23.36C12.75,129.06,3.99,108.86,3.52,87.28c-.48-21.9,7.6-42.67,22.75-58.49C41.42,12.97,61.82,4,83.72,3.52c.6-.01,1.21-.02,1.81-.02,21.53,0,41.87,8.3,57.28,23.36,15.44,15.08,24.2,35.28,24.66,56.86,.48,21.9-7.6,42.67-22.75,58.49-15.15,15.82-35.55,24.8-57.45,25.27-.6,.01-1.21,.02-1.82,.02Z"/>
            <path class="cls-1"
                  d="M85.53,7c42.56,0,77.52,34.03,78.45,76.79,.94,43.34-33.43,79.25-76.78,80.19-.58,.01-1.16,.02-1.74,.02-42.56,0-77.52-34.03-78.45-76.79C6.08,43.86,40.45,7.96,83.79,7.02c.58-.01,1.16-.02,1.74-.02m0-7V0h0c-.63,0-1.26,0-1.89,.02-22.83,.5-44.11,9.85-59.9,26.35C7.95,42.87-.48,64.53,.02,87.36c.49,22.5,9.62,43.56,25.72,59.29,16.07,15.71,37.28,24.35,59.73,24.35,.63,0,1.26,0,1.89-.02,22.83-.5,44.11-9.85,59.9-26.35,15.79-16.5,24.22-38.16,23.72-60.99-.49-22.5-9.62-43.56-25.72-59.29C129.19,8.65,107.98,0,85.54,0h0Z"/>
        </g>
        <path d="M94.59,4.06l-17.03-.11c-2.97-.02-5.39,2.47-5.41,5.56l1.99,146.83c-.02,3.09,2.37,5.61,5.34,5.63l11.08,.07c2.97,.02,5.39-2.47,5.41-5.56l3.96-146.79c.02-3.09-2.37-5.61-5.34-5.63Z"/>
        <g>
            <rect class="cls-1" x="63.33" y="28.72" width="45.12" height="6.69"
                  transform="translate(53.25 117.73) rotate(-89.62)"/>
            <path d="M83.19,9.98l5.69,.04-.3,44.12-5.69-.04,.3-44.12m-.99-1.01l-.31,46.12,7.69,.05,.31-46.12-7.69-.05h0Z"/>
        </g>
    </g>
</svg>