<?xml version="1.0" encoding="UTF-8"?>
<svg id="Layer_2" xmlns="http://www.w3.org/2000/svg" viewBox="0 0 243 243">
    <defs>
        <style>.cls-1,.cls-2{fill:#fff;}.cls-2{font-family:MyriadPro-Bold, 'Myriad Pro';font-size:24px;}</style>
    </defs>
    <g id="Layer_1-2">
        <g>
            <circle cx="121.5" cy="121.5" r="121"/>
            <path class="cls-1"
                  d="M121.5,1c32.19,0,62.45,12.53,85.21,35.29,22.76,22.76,35.29,53.02,35.29,85.21s-12.53,62.45-35.29,85.21c-22.76,22.76-53.02,35.29-85.21,35.29s-62.45-12.53-85.21-35.29C13.53,183.95,1,153.69,1,121.5S13.53,59.05,36.29,36.29C59.05,13.53,89.31,1,121.5,1m0-1C54.4,0,0,54.4,0,121.5s54.4,121.5,121.5,121.5,121.5-54.4,121.5-121.5S188.6,0,121.5,0h0Z"/>
        </g>
        <text class="cls-2" transform="translate(41.08 167.9) rotate(-115.16)">
            <tspan x="0" y="0">A</tspan>
        </text>
        <text class="cls-2" transform="translate(34.69 154.16) rotate(-106.59)">
            <tspan x="0" y="0">S</tspan>
        </text>
        <text class="cls-2" transform="translate(31.1 142.24) rotate(-98.84)">
            <tspan x="0" y="0">S</tspan>
        </text>
        <text class="cls-2" transform="translate(29.13 130.04) rotate(-90.93)">
            <tspan x="0" y="0">A</tspan>
        </text>
        <text class="cls-2" transform="translate(28.82 115.69) rotate(-81.43)">
            <tspan x="0" y="0">U</tspan>
        </text>
        <text class="cls-2" transform="translate(31.28 100.09) rotate(-72.88)">
            <tspan x="0" y="0">L</tspan>
        </text>
        <text class="cls-2" transform="translate(33.87 91.08) rotate(-66.77)">
            <tspan x="0" y="0">T</tspan>
        </text>
        <text class="cls-2" transform="translate(39.07 79.41) rotate(-61.4)">
            <tspan x="0" y="0"></tspan>
        </text>
        <text class="cls-2" transform="translate(41.29 75.33) rotate(-58.52)">
            <tspan x="0" y="0"></tspan>
        </text>
        <text class="cls-2" transform="translate(43.7 71.38) rotate(-55.66)">
            <tspan x="0" y="0"></tspan>
        </text>
        <text class="cls-2" transform="translate(46.33 67.53) rotate(-52.78)">
            <tspan x="0" y="0"></tspan>
        </text>
        <text class="cls-2" transform="translate(48.76 63.81) rotate(-46.71)">
            <tspan x="0" y="0">A</tspan>
        </text>
        <text class="cls-2" transform="translate(58.9 52.65) rotate(-36.06)">
            <tspan x="0" y="0">M</tspan>
        </text>
        <text class="cls-2" transform="translate(74.76 41.27) rotate(-25.4)">
            <tspan x="0" y="0">A</tspan>
        </text>
        <text class="cls-2" transform="translate(88.61 34.74) rotate(-16.46)">
            <tspan x="0" y="0">Z</tspan>
        </text>
        <text class="cls-2" transform="translate(101.36 30.97) rotate(-8.51)">
            <tspan x="0" y="0">E</tspan>
        </text>
        <text class="cls-2" transform="translate(113.69 29.29) rotate(-3.29)">
            <tspan x="0" y="0"></tspan>
        </text>
        <text class="cls-2" transform="translate(118.37 29.04) rotate(-.93)">
            <tspan x="0" y="0"></tspan>
        </text>
        <text class="cls-2" transform="translate(122.99 28.98) rotate(2.38)">
            <tspan x="0" y="0"></tspan>
        </text>
        <text class="cls-2" transform="translate(127.63 29.17) rotate(5.23)">
            <tspan x="0" y="0"></tspan>
        </text>
        <text class="cls-2" transform="translate(132.11 29.26) rotate(11.36)">
            <tspan x="0" y="0">A</tspan>
        </text>
        <text class="cls-2" transform="translate(146.93 32.15) rotate(21.01)">
            <tspan x="0" y="0">N</tspan>
        </text>
        <text class="cls-2" transform="translate(161.82 37.82) rotate(30.89)">
            <tspan x="0" y="0">N</tspan>
        </text>
        <text class="cls-2" transform="translate(175.5 45.9) rotate(40.88)">
            <tspan x="0" y="0">O</tspan>
        </text>
        <text class="cls-2" transform="translate(187.42 56.21) rotate(49.72)">
            <tspan x="0" y="0">Y</tspan>
        </text>
        <text class="cls-2" transform="translate(196.34 67.07) rotate(55.42)">
            <tspan x="0" y="0"></tspan>
        </text>
        <text class="cls-2" transform="translate(198.99 70.91) rotate(58.31)">
            <tspan x="0" y="0"></tspan>
        </text>
        <text class="cls-2" transform="translate(201.43 74.86) rotate(61.18)">
            <tspan x="0" y="0"></tspan>
        </text>
        <text class="cls-2" transform="translate(203.84 78.59) rotate(67.31)">
            <tspan x="0" y="0">A</tspan>
        </text>
        <text class="cls-2" transform="translate(209.92 92.4) rotate(78.1)">
            <tspan x="0" y="0">M</tspan>
        </text>
        <text class="cls-2" transform="translate(213.74 111.62) rotate(88.23)">
            <tspan x="0" y="0">P</tspan>
        </text>
        <text class="cls-2" transform="translate(214.14 125.04) rotate(95.91)">
            <tspan x="0" y="0">L</tspan>
        </text>
        <text class="cls-2" transform="translate(212.8 136.84) rotate(101.6)">
            <tspan x="0" y="0">I</tspan>
        </text>
        <text class="cls-2" transform="translate(211.66 143.21) rotate(107.43)">
            <tspan x="0" y="0">F</tspan>
        </text>
        <text class="cls-2" transform="translate(208.13 154.79) rotate(115.53)">
            <tspan x="0" y="0">Y</tspan>
        </text>
    </g>
</svg>